<svg width="15" height="15" viewBox="0 0 15 15" fill="none" xmlns="http://www.w3.org/2000/svg">
<path d="M1.28345 5.45123L0.599084 6.13561C0.409662 6.31758 0.258959 6.53594 0.156012 6.77759C0.0530643 7.01924 0 7.2792 0 7.54186C0 7.80453 0.0530643 8.06448 0.156012 8.30613C0.258959 8.54778 0.409662 8.76614 0.599084 8.94811L6.1125 14.5159C6.24318 14.6496 6.39527 14.7605 6.5625 14.8441V8.09499L1.28345 5.45123Z" fill="#4F4F4F"/>
<path d="M13.7165 5.45123L14.4009 6.13561C14.5903 6.31758 14.741 6.53594 14.844 6.77759C14.9469 7.01924 15 7.2792 15 7.54186C15 7.80453 14.9469 8.06448 14.844 8.30613C14.741 8.54778 14.5903 8.76614 14.4009 8.94811L8.8875 14.5159C8.75682 14.6496 8.60473 14.7605 8.4375 14.8441V8.09499L13.7165 5.45123Z" fill="#4F4F4F"/>
<path d="M12.3928 4.05434L8.94284 0.594971C8.76019 0.406726 8.54161 0.25706 8.30005 0.15486C8.05849 0.0526597 7.79888 0 7.53659 0C7.2743 0 7.01467 0.0526597 6.77311 0.15486C6.53155 0.25706 6.31298 0.406726 6.13034 0.594971L2.67096 4.05434L7.51783 6.47309L12.3928 4.05434Z" fill="#4F4F4F"/>
</svg>
