<svg width="15" height="15" viewBox="0 0 15 15" fill="none" xmlns="http://www.w3.org/2000/svg">
<rect width="15" height="15" fill="white"/>
<path d="M14.8185 5.34983C14.9344 5.12769 15 4.87507 15 4.60714C15 3.71954 14.2805 3 13.3928 3C12.7496 3 12.1946 3.37793 11.9378 3.92387L8.75762 10.2842C8.63875 10.5084 8.57141 10.7642 8.57141 11.0357C8.57141 11.9233 9.29097 12.6429 10.1786 12.6429C10.8183 12.6429 11.3708 12.269 11.6294 11.7279L14.8185 5.34983Z" fill="#57595D"/>
<path d="M9.99749 6.42049C10.1132 6.19852 10.1786 5.9462 10.1786 5.67855C10.1786 4.79095 9.45909 4.07141 8.57148 4.07141C7.92799 4.07141 7.37284 4.44961 7.11613 4.99585L4.47257 10.283C4.35333 10.5075 4.28577 10.7637 4.28577 11.0357C4.28577 11.9233 5.00529 12.6428 5.89291 12.6428C6.53198 12.6428 7.08393 12.2698 7.34293 11.7296L9.99749 6.42049Z" fill="#57595D"/>
<path d="M5.17515 7.49362C5.2914 7.27127 5.35714 7.01832 5.35714 6.75002C5.35714 5.86243 4.63761 5.14288 3.75 5.14288C3.10698 5.14288 2.55218 5.5205 2.29523 6.06607L0.186017 10.2845C0.0672589 10.5087 0 10.7644 0 11.0357C0 11.9233 0.719541 12.6429 1.60714 12.6429C2.24708 12.6429 2.79966 12.2689 3.0582 11.7275L5.17515 7.49362Z" fill="#57595D"/>
</svg>
